# xmcd
#
# Track frame offsets: 
#        150
#        12196
#        24019
#        31847
#        41638
#        57091
#        65640
#        74625
#        84988
#        95071
#        102676
#        110608
#        121099
#        130362
#        139159
#        149383
#        160298
#        172143
#        181711
#        191427
#        202211
#
# Disc length: 2819 seconds
#
# Revision: 0
# Processed by: cddbd v1.5.1PL2 Copyright (c) Steve Scherf et al.
# Submitted via: ExactAudioCopy v0.90b4
#
DISCID=320b0115
DTITLE=Johnny Cash - The Complete Sun Recordings 1955-1958 [CD3]
DYEAR=2005
DGENRE=Country
TTITLE0=You're the Nearest Thing to Heaven
TTITLE1=The Story of a Broken Heart
TTITLE2=Sugartime
TTITLE3=Born to Lose
TTITLE4=Always Alone
TTITLE5=You Tell Me
TTITLE6=Life Goes On
TTITLE7=You Win Again
TTITLE8=I Could Never Be Ashamed of You
TTITLE9=Hey, Good Lookin'
TTITLE10=I Can't Help It (If I'm Still in Love with You)
TTITLE11=Cold, Cold Heart
TTITLE12=Blue Train
TTITLE13=Katy Too
TTITLE14=The Ways of a Woman in Love
TTITLE15=Fools Hall of Fame
TTITLE16=Thanks a Lot
TTITLE17=It's Just About Time
TTITLE18=I Forgot to Remember to Forget
TTITLE19=I Just Thought You'd Like to Know
TTITLE20=Down the Street to 301
EXTD=
EXTT0=
EXTT1=
EXTT2=
EXTT3=
EXTT4=
EXTT5=
EXTT6=
EXTT7=
EXTT8=
EXTT9=
EXTT10=
EXTT11=
EXTT12=
EXTT13=
EXTT14=
EXTT15=
EXTT16=
EXTT17=
EXTT18=
EXTT19=
EXTT20=
PLAYORDER=
